<?xml version="1.0" encoding="UTF-8" standalone="no"?>
<!-- Created with Inkscape (http://www.inkscape.org/) -->

<svg
   xmlns:dc="http://purl.org/dc/elements/1.1/"
   xmlns:cc="http://creativecommons.org/ns#"
   xmlns:rdf="http://www.w3.org/1999/02/22-rdf-syntax-ns#"
   xmlns:svg="http://www.w3.org/2000/svg"
   xmlns="http://www.w3.org/2000/svg"
   xmlns:sodipodi="http://sodipodi.sourceforge.net/DTD/sodipodi-0.dtd"
   xmlns:inkscape="http://www.inkscape.org/namespaces/inkscape"
   version="1.1"
   id="svg2"
   xml:space="preserve"
   width="248.60742"
   height="76.005531"
   viewBox="0 0 248.60742 76.005531"
   sodipodi:docname="company-logo.svg"
   inkscape:version="0.92.4 (5da689c313, 2019-01-14)"><metadata
     id="metadata8"><rdf:RDF><cc:Work
         rdf:about=""><dc:format>image/svg+xml</dc:format><dc:type
           rdf:resource="http://purl.org/dc/dcmitype/StillImage" /><dc:title></dc:title></cc:Work></rdf:RDF></metadata><defs
     id="defs6" /><sodipodi:namedview
     pagecolor="#ffffff"
     bordercolor="#666666"
     borderopacity="1"
     objecttolerance="10"
     gridtolerance="10"
     guidetolerance="10"
     inkscape:pageopacity="0"
     inkscape:pageshadow="2"
     inkscape:window-width="1361"
     inkscape:window-height="900"
     id="namedview4"
     showgrid="false"
     inkscape:zoom="3.555807"
     inkscape:cx="131.57868"
     inkscape:cy="40.692828"
     inkscape:window-x="0"
     inkscape:window-y="0"
     inkscape:window-maximized="0"
     inkscape:current-layer="g10" /><g
     id="g10"
     inkscape:groupmode="layer"
     inkscape:label="company-logo"
     transform="matrix(1.3333333,0,0,-1.3333333,0,76.005533)"><g
       id="g12"
       transform="translate(0,0.437012)"><path
         d="M 19.052027,25.937012 H 0 V 2.7e-5 h 6.156391 v 10.527792 h 11.912071 v 5.209255 H 6.156391 v 4.699259 h 12.895636 z"
         style="fill:#857f95;fill-opacity:1;fill-rule:nonzero;stroke:none"
         id="path14"
         inkscape:connector-curvature="0" /></g><g
       id="g16"
       transform="translate(0,0.619141)"><path
         d="m 26.260761,20.7642 v 4.808541 H 20.832935 V 20.7642 Z M 26.370045,-0.182102 V 18.614927 H 20.687223 V -0.182102 Z"
         style="fill:#857f95;fill-opacity:1;fill-rule:nonzero;stroke:none"
         id="path18"
         inkscape:connector-curvature="0" /></g><g
       id="g20"
       transform="translate(0,7.139893)"><path
         d="m 40.974304,12.531315 c -2.477127,0 -4.444259,-1.056421 -5.901394,-3.096409 v 2.659269 H 29.535803 V -6.702854 h 5.682821 V 3.788511 c 0,1.238565 0.327854,2.185702 1.019993,2.87784 0.655708,0.655711 1.529991,1.019993 2.549984,1.019993 2.003559,0 3.023552,-1.09285 3.023552,-3.205694 V -6.702854 h 5.682823 V 5.60993 c 0,2.185701 -0.619282,3.897833 -1.784988,5.099968 -1.165707,1.202136 -2.768555,1.821417 -4.735684,1.821417 z"
         style="fill:#857f95;fill-opacity:1;fill-rule:nonzero;stroke:none"
         id="path22"
         inkscape:connector-curvature="0" /></g><g
       id="g24"
       transform="translate(0,6.702881)"><path
         d="m 68.726913,-6.265842 c -0.510002,0.728567 -0.764991,1.857845 -0.764991,3.460693 V 7.17622 c 0,3.861405 -2.804985,5.792107 -8.378521,5.792107 -5.682823,0 -8.669949,-2.1857 -8.997803,-6.520674 h 5.646393 c 0.07286,0.947138 0.364284,1.566418 0.837852,1.930702 0.473568,0.364285 1.311421,0.546425 2.477127,0.546425 1.894272,0 2.877842,-0.655709 2.877842,-1.894274 0,-1.092851 -0.837852,-1.712133 -2.4407,-1.857847 L 57.033417,4.917662 c -4.917828,-0.43714 -7.358528,-2.367844 -7.358528,-5.864966 0,-1.821419 0.619281,-3.205696 1.857845,-4.225689 1.238563,-1.019993 2.914268,-1.529989 4.990684,-1.529989 2.732125,0 4.735684,0.837851 6.010678,2.549984 0,-0.874281 0.182144,-1.56642 0.473572,-2.112844 z M 58.23555,-2.878006 c -0.874279,0 -1.566418,0.182142 -2.039986,0.582853 -0.509998,0.364283 -0.728569,0.91071 -0.728569,1.56642 0,1.31142 0.91071,2.039988 2.732128,2.258558 l 2.331414,0.254997 c 0.910709,0.109286 1.529991,0.364283 1.894275,0.728568 V 1.129112 c 0,-1.347849 -0.400715,-2.367841 -1.12928,-3.023552 -0.764995,-0.65571 -1.784988,-0.983566 -3.059982,-0.983566 z"
         style="fill:#857f95;fill-opacity:1;fill-rule:nonzero;stroke:none"
         id="path26"
         inkscape:connector-curvature="0" /></g><g
       id="g28"
       transform="translate(0,7.139893)"><path
         d="m 82.257393,12.531315 c -2.477127,0 -4.444267,-1.056421 -5.901398,-3.096409 v 2.659269 H 70.818886 V -6.702854 h 5.682823 V 3.788511 c 0,1.238565 0.327858,2.185702 1.019997,2.87784 0.655708,0.655711 1.529983,1.019993 2.54998,1.019993 2.003555,0 3.023552,-1.09285 3.023552,-3.205694 V -6.702854 h 5.682823 V 5.60993 c 0,2.185701 -0.619278,3.897833 -1.784988,5.099968 -1.165711,1.202136 -2.768548,1.821417 -4.73568,1.821417 z"
         style="fill:#857f95;fill-opacity:1;fill-rule:nonzero;stroke:none"
         id="path30"
         inkscape:connector-curvature="0" /></g><g
       id="g32"
       transform="translate(0,6.702881)"><path
         d="m 100.79363,-6.702982 c 2.62284,0 4.77211,0.692139 6.48425,2.112845 1.6757,1.420705 2.62284,3.314979 2.80498,5.719249 h -5.64639 c -0.255,-2.112844 -1.45714,-3.169266 -3.64284,-3.169266 -2.622838,0 -3.897832,1.712132 -3.897832,5.172825 0,3.460694 1.274994,5.209256 3.897832,5.209256 2.03999,0 3.20569,-0.983567 3.53355,-2.87784 h 5.64639 c -0.29143,2.294985 -1.23856,4.116403 -2.87784,5.464252 -1.63927,1.347848 -3.75211,2.039988 -6.3021,2.039988 -2.950696,0 -5.28211,-0.910709 -7.030668,-2.65927 -1.748558,-1.784988 -2.622841,-4.189261 -2.622841,-7.176386 0,-2.987125 0.874283,-5.354965 2.622841,-7.139955 1.748558,-1.821417 4.079972,-2.695698 7.030668,-2.695698 z"
         style="fill:#857f95;fill-opacity:1;fill-rule:nonzero;stroke:none"
         id="path34"
         inkscape:connector-curvature="0" /></g><g
       id="g36"
       transform="translate(0,0.619141)"><path
         d="m 117.63995,20.7642 v 4.808541 h -5.42783 V 20.7642 Z m 0.10928,-20.946302 v 18.797029 h -5.68282 V -0.182102 Z"
         style="fill:#857f95;fill-opacity:1;fill-rule:nonzero;stroke:none"
         id="path38"
         inkscape:connector-curvature="0" /></g><g
       id="g40"
       transform="translate(0,6.702881)"><path
         d="m 139.01988,-6.265842 c -0.50999,0.728567 -0.765,1.857845 -0.765,3.460693 V 7.17622 c 0,3.861405 -2.80499,5.792107 -8.37852,5.792107 -5.68283,0 -8.66995,-2.1857 -8.99781,-6.520674 h 5.6464 c 0.0729,0.947138 0.36429,1.566418 0.83786,1.930702 0.47357,0.364285 1.31141,0.546425 2.47712,0.546425 1.89428,0 2.87784,-0.655709 2.87784,-1.894274 0,-1.092851 -0.83786,-1.712133 -2.4407,-1.857847 l -2.9507,-0.254997 c -4.91783,-0.43714 -7.35852,-2.367844 -7.35852,-5.864966 0,-1.821419 0.61929,-3.205696 1.85785,-4.225689 1.23856,-1.019993 2.91426,-1.529989 4.99068,-1.529989 2.73213,0 4.73568,0.837851 6.01068,2.549984 0,-0.874281 0.18214,-1.56642 0.47357,-2.112844 z m -10.49136,3.387836 c -0.87428,0 -1.56642,0.182142 -2.03999,0.582853 -0.51,0.364283 -0.72857,0.91071 -0.72857,1.56642 0,1.31142 0.9107,2.039988 2.73212,2.258558 l 2.33142,0.254997 c 0.91071,0.109286 1.52998,0.364283 1.89427,0.728568 V 1.129112 c 0,-1.347849 -0.40071,-2.367841 -1.12927,-3.023552 -0.765,-0.65571 -1.78499,-0.983566 -3.05998,-0.983566 z"
         style="fill:#857f95;fill-opacity:1;fill-rule:nonzero;stroke:none"
         id="path42"
         inkscape:connector-curvature="0" /></g><g
       id="g44"
       transform="translate(0,0.437012)"><path
         d="m 146.75909,2.7e-5 v 25.936985 h -5.68281 V 2.7e-5 Z"
         style="fill:#857f95;fill-opacity:1;fill-rule:nonzero;stroke:none"
         id="path46"
         inkscape:connector-curvature="0" /></g><g
       id="g48"
       transform="translate(0.015991,30.856445)"><path
         d="m 17.701035,13.918568 c 2.313621,1.101724 3.488794,2.937931 3.488794,5.545345 0,1.983105 -0.771208,3.598965 -2.240172,4.847588 -1.468965,1.211895 -3.672415,1.836204 -6.536898,1.836204 H 0 V 1.2e-4 h 12.78 c 3.084828,0 5.435172,0.661034 7.051036,1.983103 1.61586,1.322069 2.423791,3.195 2.423791,5.618793 0,1.358794 -0.403963,2.607413 -1.211894,3.782585 -0.807932,1.175172 -1.946381,2.019828 -3.341898,2.533967 z m -5.692242,7.271379 c 0.954827,0 1.68931,-0.257067 2.203448,-0.734482 0.514138,-0.514137 0.807932,-1.175172 0.807932,-1.983104 0,-0.881379 -0.293794,-1.579138 -0.807932,-2.093275 -0.514138,-0.51414 -1.248621,-0.771208 -2.203448,-0.771208 H 6.206379 v 5.582069 z M 6.206379,4.957878 v 5.949311 h 6.20638 c 2.276896,0 3.452068,-0.991553 3.452068,-2.974656 0,-0.954826 -0.330516,-1.68931 -0.918102,-2.203447 C 14.359138,5.214949 13.514482,4.957878 12.412759,4.957878 Z"
         style="fill:#160b35;fill-opacity:1;fill-rule:nonzero;stroke:none"
         id="path50"
         inkscape:connector-curvature="0" /></g><g
       id="g52"
       transform="translate(0.015991,37.173096)"><path
         d="m 33.3554,-6.757219 c 3.011379,0 5.398449,0.88138 7.234654,2.717586 1.76276,1.762758 2.680862,4.186552 2.680862,7.197931 0,3.01138 -0.918102,5.435171 -2.680862,7.234653 -1.799485,1.762759 -4.223275,2.680861 -7.234654,2.680861 -3.048103,0 -5.471897,-0.918102 -7.234655,-2.680861 C 24.284538,8.556745 23.40316,6.169678 23.40316,3.158298 c 0,-3.011379 0.881378,-5.398448 2.717585,-7.197931 1.799482,-1.836206 4.223276,-2.717586 7.234655,-2.717586 z m 0,4.590517 c -1.358793,0 -2.387068,0.440689 -3.084825,1.358793 -0.734482,0.88138 -1.065001,2.203449 -1.065001,3.966207 0,1.726035 0.330519,3.048103 1.065001,3.966206 0.697757,0.881379 1.726032,1.358792 3.084825,1.358792 1.322071,0 2.313622,-0.477413 3.048103,-1.358792 0.697758,-0.918103 1.064999,-2.240171 1.064999,-3.966206 0,-1.762758 -0.367241,-3.084827 -1.064999,-3.966207 -0.734481,-0.918104 -1.726032,-1.358793 -3.048103,-1.358793 z"
         style="fill:#160b35;fill-opacity:1;fill-rule:nonzero;stroke:none"
         id="path54"
         inkscape:connector-curvature="0" /></g><g
       id="g56"
       transform="translate(0.015991,37.760498)"><path
         d="m 55.92997,12.339516 c -2.717587,0 -4.517071,-1.285345 -5.398449,-3.819311 v 3.525518 H 44.949455 V -6.903933 h 5.728962 v 8.813794 c 0,3.415344 1.652588,5.141378 5.031208,5.141378 h 1.468968 v 5.214829 c -0.734482,0.03672 -1.175175,0.07345 -1.248623,0.07345 z"
         style="fill:#160b35;fill-opacity:1;fill-rule:nonzero;stroke:none"
         id="path58"
         inkscape:connector-curvature="0" /></g><g
       id="g60"
       transform="translate(0.015991,30.415771)"><path
         d="m 70.979248,17.113552 c -1.322067,1.799482 -3.158272,2.717585 -5.545341,2.717585 -2.570691,0 -4.553799,-0.918103 -6.022763,-2.680861 -1.505687,-1.799483 -2.240173,-4.223274 -2.240173,-7.234653 0,-3.048104 0.734486,-5.471897 2.240173,-7.234656 1.468964,-1.799482 3.452072,-2.680862 6.022763,-2.680862 2.497238,0 4.40689,0.954828 5.692237,2.901207 V 0.440794 h 5.582077 V 26.588379 H 70.979248 Z M 67.013046,4.590622 c -2.71759,0 -4.039661,1.726034 -4.039661,5.178102 0,1.76276 0.330524,3.084828 1.065006,4.039655 0.697762,0.954827 1.689308,1.432242 2.974655,1.432242 2.717583,0 4.076378,-1.799482 4.076378,-5.324998 0,-3.562241 -1.358795,-5.325001 -4.076378,-5.325001 z"
         style="fill:#160b35;fill-opacity:1;fill-rule:nonzero;stroke:none"
         id="path62"
         inkscape:connector-curvature="0" /></g><g
       id="g64"
       transform="translate(0.015991,37.173096)"><path
         d="m 97.913673,2.607435 c 0,3.158276 -0.881385,5.728965 -2.644142,7.638621 -1.836204,1.87293 -4.186554,2.827756 -7.124481,2.827756 -2.974655,0 -5.325005,-0.918102 -7.087761,-2.717584 -1.799484,-1.799482 -2.680862,-4.18655 -2.680862,-7.19793 0,-3.011379 0.881385,-5.398448 2.71759,-7.197931 1.799484,-1.836206 4.186546,-2.717586 7.124481,-2.717586 2.313622,0 4.296723,0.550861 5.986031,1.68931 1.652588,1.138448 2.75431,2.680862 3.268448,4.663965 h -5.435166 c -0.697761,-1.432241 -1.983108,-2.129999 -3.819313,-2.129999 -1.175171,0 -2.166725,0.330515 -2.901207,1.028274 -0.771209,0.661034 -1.248619,1.652586 -1.432243,2.974656 h 14.028625 z m -9.842071,6.243102 c 1.13845,0 2.093277,-0.330517 2.827759,-0.991551 0.734481,-0.661034 1.175171,-1.579137 1.395515,-2.75431 h -8.3731 c 0.403969,2.497241 1.799484,3.745861 4.149826,3.745861 z"
         style="fill:#160b35;fill-opacity:1;fill-rule:nonzero;stroke:none"
         id="path66"
         inkscape:connector-curvature="0" /></g><g
       id="g68"
       transform="translate(0.015991,37.760498)"><path
         d="m 110.72392,12.339516 c -2.71759,0 -4.51707,-1.285345 -5.39845,-3.819311 v 3.525518 H 99.743401 V -6.903933 h 5.728969 v 8.813794 c 0,3.415344 1.65258,5.141378 5.0312,5.141378 h 1.46896 v 5.214829 c -0.73448,0.03672 -1.17517,0.07345 -1.24861,0.07345 z"
         style="fill:#160b35;fill-opacity:1;fill-rule:nonzero;stroke:none"
         id="path70"
         inkscape:connector-curvature="0" /></g><g
       id="g72"
       transform="translate(0.015991,30.856445)"><path
         d="M 132.95477,26.147705 H 113.74805 V 1.2e-4 h 6.20638 v 10.613275 h 12.00878 v 5.251551 h -12.00878 v 4.737416 h 13.00034 z"
         style="fill:#160b35;fill-opacity:1;fill-rule:nonzero;stroke:none"
         id="path74"
         inkscape:connector-curvature="0" /></g><g
       id="g76"
       transform="translate(0.015991,37.760498)"><path
         d="m 145.06554,12.339516 c -2.71759,0 -4.51708,-1.285345 -5.39846,-3.819311 v 3.525518 h -5.58206 V -6.903933 h 5.72896 v 8.813794 c 0,3.415344 1.6526,5.141378 5.03122,5.141378 h 1.46896 v 5.214829 c -0.73448,0.03672 -1.17517,0.07345 -1.24862,0.07345 z"
         style="fill:#160b35;fill-opacity:1;fill-rule:nonzero;stroke:none"
         id="path78"
         inkscape:connector-curvature="0" /></g><g
       id="g80"
       transform="translate(0.015991,37.173096)"><path
         d="m 165.8438,2.607435 c 0,3.158276 -0.88138,5.728965 -2.64414,7.638621 -1.83621,1.87293 -4.18657,2.827756 -7.1245,2.827756 -2.97465,0 -5.32499,-0.918102 -7.08775,-2.717584 -1.79948,-1.799482 -2.68086,-4.18655 -2.68086,-7.19793 0,-3.011379 0.88138,-5.398448 2.71759,-7.197931 1.79948,-1.836206 4.18655,-2.717586 7.12448,-2.717586 2.31361,0 4.29672,0.550861 5.98604,1.68931 1.65259,1.138448 2.7543,2.680862 3.26845,4.663965 h -5.43518 c -0.69776,-1.432241 -1.9831,-2.129999 -3.81931,-2.129999 -1.17517,0 -2.16673,0.330515 -2.90121,1.028274 -0.77121,0.661034 -1.24862,1.652586 -1.43224,2.974656 h 14.02863 z m -9.84208,6.243102 c 1.13845,0 2.09328,-0.330517 2.82776,-0.991551 0.73448,-0.661034 1.17517,-1.579137 1.39553,-2.75431 h -8.37311 c 0.40396,2.497241 1.79948,3.745861 4.14982,3.745861 z"
         style="fill:#160b35;fill-opacity:1;fill-rule:nonzero;stroke:none"
         id="path82"
         inkscape:connector-curvature="0" /></g><g
       id="g84"
       transform="translate(0.015991,37.173096)"><path
         d="m 186.43956,2.607435 c 0,3.158276 -0.88138,5.728965 -2.64414,7.638621 -1.83621,1.87293 -4.18656,2.827756 -7.12449,2.827756 -2.97466,0 -5.325,-0.918102 -7.08775,-2.717584 -1.79949,-1.799482 -2.68087,-4.18655 -2.68087,-7.19793 0,-3.011379 0.88138,-5.398448 2.71759,-7.197931 1.79949,-1.836206 4.18656,-2.717586 7.12448,-2.717586 2.31362,0 4.29673,0.550861 5.98604,1.68931 1.65259,1.138448 2.75431,2.680862 3.26845,4.663965 h -5.43518 c -0.69775,-1.432241 -1.98309,-2.129999 -3.81931,-2.129999 -1.17517,0 -2.16673,0.330515 -2.90121,1.028274 -0.77121,0.661034 -1.24861,1.652586 -1.43224,2.974656 h 14.02863 z m -9.84207,6.243102 c 1.13844,0 2.09327,-0.330517 2.82776,-0.991551 0.73448,-0.661034 1.17517,-1.579137 1.39552,-2.75431 h -8.37311 c 0.40396,2.497241 1.79949,3.745861 4.14983,3.745861 z"
         style="fill:#160b35;fill-opacity:1;fill-rule:nonzero;stroke:none"
         id="path86"
         inkscape:connector-curvature="0" /></g></g></svg>